<?xml version="1.0" ?>
<svg height="24" version="1.1" width="24" xmlns="http://www.w3.org/2000/svg" xmlns:cc="http://creativecommons.org/ns#"
     xmlns:dc="http://purl.org/dc/elements/1.1/" xmlns:rdf="http://www.w3.org/1999/02/22-rdf-syntax-ns#">
    <g transform="translate(0 -1028.4)">
        <path d="m5 1031.4c-2.2091 0-4 1.8-4 4v8c0 2.2 1.7909 4 4 4h0.1562v4.8l5.9058-4.8h7.938c2.209 0 4-1.8 4-4v-8c0-2.2-1.791-4-4-4h-14z"
              fill="#27ae60"/>
        <path d="m4.9375 1030.4c-2.2091 0-4 1.8-4 4v8c0 2.2 1.7909 4 4 4h0.1563v4.8l5.9062-4.8h7.938c2.209 0 4-1.8 4-4v-8c0-2.2-1.791-4-4-4h-14z"
              fill="#2ecc71"/>
    </g>
</svg>